<?xml version="1.0" encoding="utf-8"?>
<!-- Generator: Adobe Illustrator 23.0.0, SVG Export Plug-In . SVG Version: 6.00 Build 0)  -->
<svg version="1.1" id="Capa_1" xmlns="http://www.w3.org/2000/svg" xmlns:xlink="http://www.w3.org/1999/xlink" x="0px" y="0px"
	 viewBox="0 0 1024 960" style="enable-background:new 0 0 1024 960;" xml:space="preserve">
<style type="text/css">
	.st0{fill:#6A39D9;}
</style>
<path class="st0" d="M425,647c76.7,0,146-13.5,208-40.5S743.8,541,779.5,491s53.2-107,52.5-171c0-21.3-2.8-42.3-8.5-63
	s-13.7-40.3-24-59s-23-36.3-38-53s-31.7-32-50-46s-38.7-26.7-61-38S604.7,40.2,580,32.5s-50.7-13.7-78-18C474.7,10.2,446.7,8,418,8
	c-76,0-146,13.8-210,41.5S93.3,115,56,163S0,263.3,0,320s14,110.7,42,162s68.3,90.3,121,117v2c0,29.3-18.3,75.3-55,138h1
	c-1.3,2.7-2,5.7-2,9c0,2,0.2,3.8,0.5,5.5s0.8,3.3,1.5,5s1.5,3.2,2.5,4.5s2.2,2.5,3.5,3.5s2.8,1.8,4.5,2.5l5,2l5.5,1
	c0.7,0,1.8-0.2,3.5-0.5l2.5-0.5h1c18.7-2.7,40.5-9.8,65.5-21.5s48-24.5,69-38.5s39.3-27.2,55-39.5S352.3,650,357,644
	c4.7,0.7,9,1.3,13,2s7.8,1,11.5,1H425z M331,578l-41,34c-5.3,6.7-17,17.2-35,31.5S219.7,670,203,680c6.7-18,11.7-33.8,15-47.5
	s5.3-22.5,6-26.5v-7l3-39l-35-18c-42-21.3-73.8-52.5-95.5-93.5S64,364.7,64,320c0-45.3,15.8-87,47.5-125s74.7-68,129-90
	S354,72,418,72s122.8,11,176.5,33s96,52,127,90S768,274.7,768,320c0,37.3-8.7,72.5-26,105.5s-41,61-71,84s-66.2,41.2-108.5,54.5
	S475,584,427,584c-20,0.7-40.3-0.3-61-3L331,578z M1024,578c0-88.7-39.3-156-118-202c-2,19.3-7.3,42.3-16,69
	c26.7,18.7,45,38.2,55,58.5c10,20.3,15,45.2,15,74.5c0,17.3-2,33.5-6,48.5s-10.3,29-19,42s-19.8,25-33.5,36S871.7,726,853,736
	l-31,15c2,54.7,4.7,89,8,103c-12-8.7-23-17.3-33-26s-18-16.3-24-23s-11.2-12.7-15.5-18s-7.5-9.7-9.5-13l-2-4l-34,5
	c-4,0.7-10,1.2-18,1.5s-15.3,0.5-22,0.5h-9c-83.3,0-152-21-206-63h-91l-1,1c12.7,15.3,27,29.5,43,42.5s33.3,24.7,52,35
	s38.7,19.2,60,26.5c21.3,7.3,44,12.8,68,16.5s49,5.5,75,5.5h19c14,0,27-0.7,39-2c14.7,16.7,39.7,38.3,75,65s68,42.7,98,48h6
	c6,0,11-2,15-6s6-9,6-15c0-2.7-0.7-5.3-2-8c-3.3-5.3-7-13.3-11-24s-7.7-22-11-34s-6.2-24.5-8.5-37.5S885,803,885,793v-2
	C977.7,743,1024,672,1024,578z"/>
</svg>
