<?xml version="1.0" encoding="utf-8"?>
<!-- Generator: Adobe Illustrator 23.0.0, SVG Export Plug-In . SVG Version: 6.00 Build 0)  -->
<svg version="1.1" id="Capa_1" xmlns="http://www.w3.org/2000/svg" xmlns:xlink="http://www.w3.org/1999/xlink" x="0px" y="0px"
	 viewBox="0 0 1024 896" style="enable-background:new 0 0 1024 896;" xml:space="preserve">
<style type="text/css">
	.st0{fill:#6A39D9;}
</style>
<path class="st0" d="M96,384H32c-8.7,0-16.2,3.2-22.5,9.5S0,407.3,0,416v64c0,8.7,3.2,16.2,9.5,22.5S23.3,512,32,512h64
	c8.7,0,16.2-3.2,22.5-9.5s9.5-13.8,9.5-22.5v-64c0-8.7-3.2-16.2-9.5-22.5S104.7,384,96,384z M992,416H320c-8.7,0-16.2,3.2-22.5,9.5
	S288,439.3,288,448s3.2,16.2,9.5,22.5s13.8,9.5,22.5,9.5h672c8.7,0,16.2-3.2,22.5-9.5s9.5-13.8,9.5-22.5s-3.2-16.2-9.5-22.5
	S1000.7,416,992,416z M96,640H32c-8.7,0-16.2,3.2-22.5,9.5S0,663.3,0,672v64c0,8.7,3.2,16.2,9.5,22.5S23.3,768,32,768h64
	c8.7,0,16.2-3.2,22.5-9.5s9.5-13.8,9.5-22.5v-64c0-8.7-3.2-16.2-9.5-22.5S104.7,640,96,640z M992,672H320c-8.7,0-16.2,3.2-22.5,9.5
	S288,695.3,288,704s3.2,16.2,9.5,22.5s13.8,9.5,22.5,9.5h672c8.7,0,16.2-3.2,22.5-9.5s9.5-13.8,9.5-22.5s-3.2-16.2-9.5-22.5
	S1000.7,672,992,672z M96,128H32c-8.7,0-16.2,3.2-22.5,9.5S0,151.3,0,160v64c0,8.7,3.2,16.2,9.5,22.5S23.3,256,32,256h64
	c8.7,0,16.2-3.2,22.5-9.5s9.5-13.8,9.5-22.5v-64c0-8.7-3.2-16.2-9.5-22.5S104.7,128,96,128z M320,224h672c8.7,0,16.2-3.2,22.5-9.5
	s9.5-13.8,9.5-22.5s-3.2-16.2-9.5-22.5s-13.8-9.5-22.5-9.5H320c-8.7,0-16.2,3.2-22.5,9.5S288,183.3,288,192s3.2,16.2,9.5,22.5
	S311.3,224,320,224z"/>
</svg>
