<?xml version="1.0" encoding="utf-8"?>
<!-- Generator: Adobe Illustrator 23.0.0, SVG Export Plug-In . SVG Version: 6.00 Build 0)  -->
<svg version="1.1" id="Capa_1" xmlns="http://www.w3.org/2000/svg" xmlns:xlink="http://www.w3.org/1999/xlink" x="0px" y="0px"
	 viewBox="0 0 768 1024" style="enable-background:new 0 0 768 1024;" xml:space="preserve">
<style type="text/css">
	.st0{fill:#6A39D9;}
</style>
<path class="st0" d="M388,0c-52,0-101.8,10.5-149.5,31.5s-88.8,49-123.5,84S52.5,192,31.5,240S0,338,0,390c0,29.3,4,60,12,92
	s17.3,61.7,28,89s26,57.7,46,91s37.8,61.5,53.5,84.5s36.8,51,63.5,84s47.3,58.2,62,75.5c14.7,17.3,35.3,41.3,62,72
	c8,9.3,14,16,18,20c1.3,2,3.7,4.5,7,7.5s9.3,6.8,18,11.5s17,7,25,7h3c18.7,0,35.3-8.7,50-26c213.3-245.3,320-448,320-608
	c0-111.3-34-203.7-102-277C595.3,37.7,502.7,0,388,0z M400,955c-0.7,1.3-2,2.7-4,4l-4-4l-17-19c-25.3-29.3-45-52.2-59-68.5
	s-33.7-40.2-59-71.5s-45.3-57.8-60-79.5s-31.7-48-51-79s-34.2-59-44.5-84s-19.2-52-26.5-81S64,416,64,390c0-58,14.7-112.2,44-162.5
	s68.8-90.2,118.5-119.5S330,64,388,64c52.7,0,99.7,9.2,141,27.5s74.5,43.2,99.5,74.5s43.8,66,56.5,104s19,78,19,120
	C704,534,602.7,722.3,400,955z M385,193c-20.7,0-40.8,3.3-60.5,10s-37.3,15.8-53,27.5S242,256,230,272s-21.2,33.7-27.5,53
	s-9.5,39.3-9.5,60c0,53.3,18.8,98.7,56.5,136s83,56,136,56s98.2-18.7,135.5-56s56-82.7,56-136c0-26-5-50.8-15-74.5s-23.7-44-41-61
	c-17.3-17-37.8-30.7-61.5-41S411,193,385,193z M385,513c-35.3,0-65.7-12.7-91-38s-38-55.7-38-91s12.5-65.5,37.5-90.5
	S348.7,256,384,256s65.5,12.5,90.5,37.5S512,348.7,512,384c0,44-17.7,79-53,105C437,505,412.3,513,385,513z"/>
</svg>
